<?xml version="1.0" encoding="UTF-8"?>
<svg width="700px" height="418px" viewBox="0 0 700 418" version="1.1" xmlns="http://www.w3.org/2000/svg" xmlns:xlink="http://www.w3.org/1999/xlink">
    <!-- Generator: Sketch 50 (54983) - http://www.bohemiancoding.com/sketch -->
    <title>first things</title>
    <desc>Created with Sketch.</desc>
    <defs>
        <linearGradient x1="50%" y1="99.9796293%" x2="50%" y2="0%" id="linearGradient-1">
            <stop stop-color="#808080" stop-opacity="0.25" offset="0%"></stop>
            <stop stop-color="#808080" stop-opacity="0.12" offset="54%"></stop>
            <stop stop-color="#808080" stop-opacity="0.1" offset="100%"></stop>
        </linearGradient>
        <linearGradient x1="50%" y1="100%" x2="50%" y2="0%" id="linearGradient-2">
            <stop stop-color="#808080" stop-opacity="0.25" offset="0%"></stop>
            <stop stop-color="#808080" stop-opacity="0.12" offset="54%"></stop>
            <stop stop-color="#808080" stop-opacity="0.1" offset="100%"></stop>
        </linearGradient>
        <linearGradient x1="50%" y1="100%" x2="50%" y2="-1.75274566e-15%" id="linearGradient-3">
            <stop stop-color="#808080" stop-opacity="0.25" offset="0%"></stop>
            <stop stop-color="#808080" stop-opacity="0.12" offset="54%"></stop>
            <stop stop-color="#808080" stop-opacity="0.1" offset="100%"></stop>
        </linearGradient>
        <linearGradient x1="50%" y1="99.9796293%" x2="50%" y2="-1.44742867e-14%" id="linearGradient-4">
            <stop stop-color="#808080" stop-opacity="0.25" offset="0%"></stop>
            <stop stop-color="#808080" stop-opacity="0.12" offset="54%"></stop>
            <stop stop-color="#808080" stop-opacity="0.1" offset="100%"></stop>
        </linearGradient>
    </defs>
    <g id="Design-&amp;-Dev" stroke="none" stroke-width="1" fill="none" fill-rule="evenodd">
        <g id="tune-your-brand/1" transform="translate(-872.000000, -271.000000)" fill-rule="nonzero">
            <g id="first-things" transform="translate(872.000000, 271.000000)">
                <path d="M577.5,283 C645.148958,282.999999 699.991622,338.10872 700,406.09428 L700,408 L455,408 L455,406.09428 C455.008378,338.10872 509.851042,282.999999 577.5,283 Z" id="Shape" fill="#20A5DE"></path>
                <path d="M122.5,283.015244 C190.148958,283.015243 244.991622,338.117244 245,406.094512 L245,408 L0,408 L0,406.094512 C-8.28533345e-15,338.11129 54.8451181,283 122.5,283 L122.5,283.015244 Z" id="Shape" fill="#20A5DE"></path>
                <rect id="Rectangle-path" fill="url(#linearGradient-1)" x="316" y="70" width="38" height="37"></rect>
                <rect id="Rectangle-path" fill="#F5F5F5" x="317" y="70" width="37" height="35"></rect>
                <rect id="Rectangle-path" fill="url(#linearGradient-2)" x="369" y="102" width="38" height="37"></rect>
                <rect id="Rectangle-path" fill="#F5F5F5" x="370" y="103" width="37" height="35"></rect>
                <rect id="Rectangle-path" fill="url(#linearGradient-1)" x="426" y="61" width="38" height="37"></rect>
                <rect id="Rectangle-path" fill="#F5F5F5" x="428" y="62" width="37" height="35"></rect>
                <rect id="Rectangle-path" fill="url(#linearGradient-3)" x="368" y="0" width="38" height="37"></rect>
                <rect id="Rectangle-path" fill="#7CFCFF" x="369" y="1" width="37" height="35"></rect>
                <rect id="Rectangle-path" fill="url(#linearGradient-2)" x="310" y="0" width="38" height="37"></rect>
                <rect id="Rectangle-path" fill="#FFFFA5" x="311" y="1" width="37" height="35"></rect>
                <rect id="Rectangle-path" fill="url(#linearGradient-4)" x="258" y="32" width="38" height="37"></rect>
                <rect id="Rectangle-path" fill="#FF69B4" x="258" y="32" width="37" height="35"></rect>
                <path d="M113.500062,96 C113.500062,96 110.636502,121.667513 101.470123,126.92132 C92.3037425,132.175127 128.999169,138 128.999169,138 C128.999169,138 139.309477,104.748731 146.195477,101.832487 C153.081477,98.9162437 113.500062,96 113.500062,96 Z" id="Shape" fill="#D18A6A"></path>
                <path d="M138,163.425686 C138,163.425686 147.545354,136.81911 157.12742,144.339016 C166.709487,151.858923 149.248832,175 149.248832,175 L138,163.425686 Z" id="Shape" fill="#D18A6A"></path>
                <path d="M85.0398537,270.019345 C85.0398537,270.019345 80.993276,292.653071 154.450742,294.395292 L202.458555,296.137513 C202.458555,296.137513 207.667769,299.621955 200.72215,307.742221 C196.192399,313.044633 195.595982,325.391679 195.746974,333.23925 C195.846651,338.558705 195.296466,343.87038 194.108714,349.055588 C192.319462,356.865284 189.865847,367.235287 189.156186,368.682088 C188.001099,371 216.334693,371 216.334693,371 L231.373467,311.219089 C231.373467,311.219089 247.567328,277.556345 225.009166,267.693859 C202.451005,257.831372 138.8231,241 138.8231,241 L85.0398537,270.019345 Z" id="Shape" fill="#EEEEEE"></path>
                <path d="M208.323418,367.134632 C208.323418,367.134632 216.484593,359.859784 219.126096,362.628626 C219.126096,362.628626 210.659545,382.253268 231.135011,393.290706 L241.662851,399.101481 C241.662851,399.101481 263.886595,403.751619 248.678866,414.212531 C233.471138,424.673444 182,410.146506 182,410.146506 L189.016015,364.229244 C189.016015,364.229244 198.963641,372.368881 208.323418,367.134632 Z" id="Shape" fill="#000000" opacity="0.1"></path>
                <path d="M208.323418,367.134632 C208.323418,367.134632 216.484593,359.859784 219.126096,362.628626 C219.126096,362.628626 210.659545,382.253268 231.135011,393.290706 L241.662851,399.101481 C241.662851,399.101481 263.886595,403.751619 248.678866,414.212531 C233.471138,424.673444 182,410.146506 182,410.146506 L189.016015,364.229244 C189.016015,364.229244 198.963641,372.361295 208.323418,367.134632 Z" id="Shape" fill="#333333"></path>
                <path d="M129,168.167986 C129,168.167986 135.747468,166.445324 137.436171,163 C137.436171,163 152.061805,163.576717 150.93845,174.474428 L136.312817,198 L129,168.167986 Z" id="Shape" fill="#EEEEEE"></path>
                <path d="M129,168.167986 C129,168.167986 135.747468,166.445324 137.436171,163 C137.436171,163 152.061805,163.576717 150.93845,174.474428 L136.312817,198 L129,168.167986 Z" id="Shape" fill="#EEEEEE" opacity="0.05"></path>
                <path d="M117.007919,122.720122 C117.007919,122.720122 108.333654,116.907431 103.124565,119.813777 C97.9154757,122.720122 71.8926792,136.675134 70.1563162,173.273841 C68.4199533,209.872547 81.7220036,282 81.7220036,282 C81.7220036,282 101.388202,262.232297 117.007919,262.816602 C132.627637,263.400906 154,236.651903 154,236.651903 C154,236.651903 130.596847,182.994542 131.978388,166.231834 C132.247458,163.277571 132.292885,160.307032 132.114277,157.345853 C131.593368,149.825778 131.019613,137.843743 132.597439,136.652369 C132.627637,136.675134 119.90689,122.143406 117.007919,122.720122 Z" id="Shape" fill="#000000" opacity="0.1"></path>
                <path d="M117.003659,120.719776 C117.003659,120.719776 108.330164,114.907626 103.121539,117.813701 C97.9129127,120.719776 71.8924295,134.673488 70.1562208,171.299138 C68.4200122,207.924788 81.7284288,280 81.7284288,280 C81.7284288,280 101.392879,260.234138 117.011208,260.818388 C132.629536,261.402638 154,234.656125 154,234.656125 C154,234.656125 130.598927,181.003759 131.980345,164.242612 C132.249391,161.288624 132.294814,158.318362 132.116223,155.357458 C131.59536,147.838084 131.021656,135.857164 132.599342,134.665901 C132.621988,134.673488 119.902372,120.143114 117.003659,120.719776 Z" id="Shape" fill="#747474"></path>
                <path d="M140,205.312738 C140,205.312738 161.80429,183.938213 171.818112,188.688968 C181.831934,193.439724 154.128564,216 154.128564,216 L140,205.312738 Z" id="Shape" fill="#D18A6A"></path>
                <path d="M90,165.667631 C90,165.667631 96.9992384,223.879575 101.089109,227.374419 C105.178979,230.869263 118.012186,247.165873 143.686215,227.374419 L160,212.817634 C160,212.817634 144.242193,209.907797 146.58035,201.178284 C146.58035,201.178284 125.575019,209.907797 122.071592,202.925706 C118.568165,195.943616 127.326733,163.927806 127.326733,163.927806 C127.326733,163.927806 122.658035,135.406841 109.238385,140.641509 C95.8187357,145.876177 90,165.667631 90,165.667631 Z" id="Shape" fill="#000000" opacity="0.1"></path>
                <path d="M89,165.674176 C89,165.674176 95.9969545,223.880779 100.085491,227.375302 C104.174027,230.869826 117.003045,247.16494 142.668697,227.375302 L159,212.82745 C159,212.82745 143.247335,209.91788 145.584729,201.189168 C145.584729,201.189168 124.586252,209.91788 121.083968,202.93643 C117.581684,195.95498 126.337394,163.942108 126.337394,163.942108 C126.337394,163.942108 121.67022,135.400969 108.254949,140.642754 C94.8396781,145.884538 89,165.674176 89,165.674176 Z" id="Shape" fill="#EEEEEE"></path>
                <path d="M113.286279,98 C113.286279,98 113.956773,98.8503697 113,103.38321 C117.972207,108.943889 124.202534,115 132.338873,115 C134.410817,114.999253 136.475884,114.766044 138.493862,114.304915 C141.100504,108.980861 143.842752,104.632884 146.19325,103.671596 C153.109138,100.809917 113.286279,98 113.286279,98 Z" id="Shape" fill="#000000" opacity="0.1"></path>
                <circle id="Oval" fill="#D18A6A" cx="133.5" cy="87.5" r="27.5"></circle>
                <path d="M121.552612,98.3473366 C122.002839,96.2568647 122.376757,93.8407032 121.033706,92.1668108 C120.270609,91.1821682 118.996236,90.651976 118.103413,89.7733719 C114.989976,86.6528122 117.729495,81.3660389 120.926872,78.3287952 C128.238313,71.428747 137.61283,67.0767861 147.635273,65.9298726 C149.329349,65.7405182 151.168413,65.5890348 152.419892,64.4150378 C153.946086,63.0365382 154.007134,60.764286 153.999503,58.7419816 L153.923194,43.6693757 C153.923194,41.722813 153.923194,39.7005086 153.060894,37.9357261 C152.198594,36.1709436 150.35953,34.7318505 148.421263,35.0423917 C146.643247,35.3302103 145.422291,36.8980642 144.216598,38.2311188 C137.738351,45.1622802 127.785735,47.7125348 118.736783,44.7600567 C116.523801,44.0026393 114.387129,42.9043841 112.059683,42.6544364 C109.732237,42.4044886 107.053766,43.2679444 106.107525,45.3962873 C105.054451,47.7745779 106.53486,50.6300414 105.710715,53.0916479 C104.108211,57.8709516 95.9964877,56.9999216 93.6079936,61.4232392 C91.6010481,65.1497327 95.0120924,69.30038 97.3242768,72.8526675 C101.628145,79.4573471 102.398873,87.645029 104.634748,95.1889062 C105.817548,99.1956441 109.564355,109.299592 114.738154,109.943397 C120.881086,110.746259 120.59874,102.816099 121.552612,98.3473366 Z" id="Shape" fill="#000000" opacity="0.1"></path>
                <path d="M120.529719,98.3540373 C120.979946,96.2635941 121.353864,93.847466 120.010813,92.1735966 C119.247716,91.1889676 117.973343,90.6587827 117.08052,89.7801907 C113.967083,86.6596741 116.706602,81.3578255 119.926872,78.3281977 C127.238313,71.4282447 136.61283,67.0763438 146.635273,65.9294461 C148.329349,65.7400944 150.168413,65.588613 151.419892,64.4146322 C152.946086,63.0361516 153.007134,60.7639308 152.999503,58.7416542 L152.923194,43.6692561 C152.923194,41.7227203 152.923194,39.7004438 152.060894,37.9356856 C151.198594,36.1709274 149.35953,34.7318542 147.421263,35.0423911 C145.643247,35.3302057 144.422291,36.8980381 143.216598,38.2310743 C136.738351,45.1621401 126.785735,47.7123595 117.736783,44.7599221 C115.523801,44.0025152 113.387129,42.9042751 111.059683,42.6543308 C108.732237,42.4043865 106.053766,43.2678304 105.107525,45.3961439 C104.054451,47.7744017 105.53486,50.6298259 104.710715,53.0913985 C103.108211,57.8706363 94.9964877,56.9996183 92.6079936,61.4228748 C90.6010481,65.149317 94.0120924,69.299907 96.3242768,72.8521456 C100.628145,79.4567341 101.398873,87.6443031 103.634748,95.1880762 C104.817548,99.194759 108.564355,109.298568 113.738154,109.942363 C119.850562,110.752789 119.568216,102.822738 120.529719,98.3540373 Z" id="Shape" fill="#333333"></path>
                <rect id="Rectangle-path" fill="#7CFCFF" transform="translate(164.500000, 134.500000) rotate(-12.150000) translate(-164.500000, -134.500000) " x="146" y="117" width="37" height="35"></rect>
                <path d="M497.823897,247.853685 C497.473509,247.686629 497.205636,247.390721 497.079269,247.031126 C496.952902,246.671531 496.978405,246.277741 497.150162,245.936477 L509.20849,223.802791 C509.379938,223.461379 509.683626,223.200368 510.052675,223.077238 C510.421723,222.954109 510.825867,222.978958 511.176103,223.146315 C511.526491,223.313371 511.794364,223.609279 511.920731,223.968874 C512.047098,224.328469 512.021595,224.722259 511.849838,225.063523 L499.79151,247.197209 C499.620062,247.538621 499.316374,247.799632 498.947325,247.922762 C498.578277,248.045891 498.174133,248.021042 497.823897,247.853685 Z" id="Shape" fill="#4D8AF0"></path>
                <path d="M501.760337,247 C501.760337,247 469.752697,251.679572 473.27002,273.947355 L483.380453,315.373321 C483.380453,315.373321 498.347785,355.904328 492.607813,371.497844 C492.607813,371.497844 486.897776,396.442919 481.180255,395.54796 C475.462734,394.653002 493.483402,400 493.483402,400 L513.689301,381.289298 L519.83339,367.478114 C519.83339,367.478114 521.592052,363.465969 513.681817,356.791702 C513.681817,356.791702 509.288905,344.762851 510.60603,341.20577 C511.923155,337.648689 515.844596,294.07634 505.105536,279.112328 L501.760337,247 Z" id="Shape" fill="#86513A"></path>
                <path d="M501.760337,247 C501.760337,247 469.752697,251.679572 473.27002,273.947355 L483.380453,315.373321 C483.380453,315.373321 498.347785,355.904328 492.607813,371.497844 C492.607813,371.497844 486.897776,396.442919 481.180255,395.54796 C475.462734,394.653002 493.483402,400 493.483402,400 L513.689301,381.289298 L519.83339,367.478114 C519.83339,367.478114 521.592052,363.465969 513.681817,356.791702 C513.681817,356.791702 509.288905,344.762851 510.60603,341.20577 C511.923155,337.648689 515.844596,294.07634 505.105536,279.112328 L501.760337,247 Z" id="Shape" fill="#000000" opacity="0.150000006"></path>
                <path d="M481.197845,411.969595 L529,366.978485 L516.197744,353 L492.410228,370.839861 C485.808474,377.049987 474.126699,404.429271 481.197845,412 L481.197845,411.969595 Z" id="Shape" fill="#F5F5F5"></path>
                <path d="M564,244.151416 C564,244.151416 515.994182,239.770479 499.099041,248.099483 C499.099041,248.099483 497.766807,255.114952 504.874575,263.436492 C511.982343,271.758032 564,244.151416 564,244.151416 Z" id="Shape" fill="#333333"></path>
                <path d="M564,244.151416 C564,244.151416 515.994182,239.770479 499.099041,248.099483 C499.099041,248.099483 497.766807,255.114952 504.874575,263.436492 C511.982343,271.758032 564,244.151416 564,244.151416 Z" id="Shape" fill="#000000" opacity="0.3"></path>
                <rect id="Rectangle-path" fill="#E0E0E0" x="482" y="248" width="46" height="7"></rect>
                <path d="M511.312232,257.168177 C511.312232,257.168177 485.516044,255.392974 474.837059,263.37761 C464.158073,271.362247 463.271945,288.222898 463.271945,288.222898 L432.136264,379.166171 C432.136264,379.166171 422.479735,393.609525 421.018001,402.236256 C420.57115,404.895283 428.59175,408 428.59175,408 L455.720917,385.337834 L461.022541,377.783779 C461.022541,377.783779 455.720917,369.353453 459.24271,367.140115 C462.764503,364.926776 499.269971,292.166115 499.269971,292.166115 L546,289.099169 L511.312232,257.168177 Z" id="Shape" fill="#86513A"></path>
                <path d="M611.028005,232.119017 C611.028005,232.119017 643.455515,283.688775 596.814968,290.358323 L560.386024,290.358323 C560.386024,290.358323 547.057993,319.701304 539.96282,317.922253 C532.867648,316.143202 492.429705,272.575386 498.647436,257.010585 L555.953433,243.67149 C555.953433,243.67149 566.611319,238.780994 567.503889,229 L611.028005,232.119017 Z" id="Shape" fill="#000000" opacity="0.1"></path>
                <path d="M612.031095,232.111711 C612.031095,232.111711 644.453871,283.716141 597.81257,290.355971 L561.396506,290.355971 C561.396506,290.355971 548.07042,319.701448 540.976283,317.922246 C533.882146,316.143044 493.442542,272.571522 499.644239,257.012968 L556.941872,243.672738 C556.941872,243.672738 567.598203,238.781826 568.490642,229 L612.031095,232.111711 Z" id="Shape" fill="#333333"></path>
                <path d="M409.738795,418 L469,388.092298 L460.484753,371 L432.297673,381.463113 C424.112593,385.594898 405.001277,408.705395 409.746473,418 L409.738795,418 Z" id="Shape" fill="#F5F5F5"></path>
                <path d="M564.066095,182 L552.771415,199.689221 L525.658029,239.001109 C525.658029,239.001109 503.514917,239.881057 506.230872,257.111502 C508.946827,274.341946 535.144636,248.274412 535.144636,248.274412 L579,199.689221 L564.066095,182 Z" id="Shape" fill="#86513A"></path>
                <path d="M564.066095,182 L552.771415,199.689221 L525.658029,239.001109 C525.658029,239.001109 503.514917,239.881057 506.230872,257.111502 C508.946827,274.341946 535.144636,248.274412 535.144636,248.274412 L579,199.689221 L564.066095,182 Z" id="Shape" fill="#000000" opacity="0.150000006"></path>
                <circle id="Oval" fill="#86513A" cx="587" cy="87" r="27"></circle>
                <path d="M591.434768,122.937642 C591.434768,122.937642 585.148193,132.698785 576.613136,135.358168 L559.543022,154.85779 C559.543022,154.85779 545.172617,167.278317 553.707674,183.249724 C562.242731,199.221131 567.183275,238.711455 567.183275,238.711455 C567.183275,238.711455 609.399686,238.711455 619.280774,244 C619.280774,244 610.745717,205.401174 622.424061,178.331377 C634.102406,151.26158 613.437778,114 613.437778,114 L591.434768,122.937642 Z" id="Shape" fill="#000000" opacity="0.1"></path>
                <path d="M591.434768,121.907939 C591.434768,121.907939 585.148193,131.66965 576.613136,134.329187 L559.543022,153.85261 C559.543022,153.85261 545.172617,166.273858 553.707674,182.246193 C562.242731,198.218528 567.183275,237.711147 567.183275,237.711147 C567.183275,237.711147 609.399686,237.711147 619.280774,243 C619.280774,243 610.745717,204.398931 622.424061,177.32756 C634.102406,150.25619 613.437778,113 613.437778,113 L591.434768,121.907939 Z" id="Shape" fill="#C574AD"></path>
                <path d="M609,166.828415 C609,166.828415 578.544524,230.17861 571.922788,234.145539 C565.301052,238.112468 514.980368,243.444443 514.980368,243.444443 C514.980368,243.444443 484.081439,249.198752 492.431891,238.572511 C500.782344,227.94627 518.475382,230.600945 518.475382,230.600945 L560.408033,222.629378 L584.685226,154 L609,166.828415 Z" id="Shape" fill="#86513A"></path>
                <path d="M595.407998,135.365994 C595.407998,135.365994 570.714321,150.020961 575.653056,163.345033 C575.653056,163.345033 603.93993,159.344787 613.817401,178 C613.817401,178 629.528084,160.683244 617.410599,142.02803 C617.410599,142.02803 610.675265,130.034853 595.407998,135.365994 Z" id="Shape" fill="#C574AD"></path>
                <path d="M595.407998,136.365994 C595.407998,136.365994 570.714321,151.020961 575.653056,164.345033 C575.653056,164.345033 603.93993,160.344787 613.817401,179 C613.817401,179 629.528084,161.683244 617.410599,143.02803 C617.410599,143.02803 610.675265,131.034853 595.407998,136.365994 Z" id="Shape" fill="#000000" opacity="0.150000006"></path>
                <path d="M574.561475,84.1632548 C575.362747,84.126131 576.144681,84.4172711 576.728034,84.9699371 C577.311387,85.5226032 577.646132,86.2894001 577.655537,87.0945549 L580.984111,99.8981093 C582.565185,105.973343 584.161387,112.154893 584.161387,118.442759 C584.161387,137.048161 569.984684,153.094371 553.568758,161.728797 L570.362932,166.156123 C572.003162,166.707859 573.736745,166.924745 575.461703,166.794023 C576.885321,166.520049 578.238916,165.959478 579.440863,165.146116 C586.582169,160.756759 591.703636,153.603172 595.085165,145.910408 C598.466695,138.217644 600.267151,129.96292 602.052477,121.730979 C607.592334,131.599518 610.997472,142.529593 612.045767,153.808211 C613.172944,166.057401 611.576741,178.914113 616.2897,190.259612 C618.627267,195.886796 623.098149,201.24819 629.150103,202 C631.839512,185.8247 633.439344,169.485763 633.938712,153.094371 C634.052186,149.464419 634.097576,145.788903 633.242737,142.257674 C632.486243,139.144117 631.048904,136.250787 630.012506,133.220764 C625.987957,121.412029 628.348219,108.502159 630.337799,96.1846229 C632.327379,83.8670872 633.749588,70.5927023 628.159095,59.4446491 C624.93643,53.0200898 618.90717,47.5220036 611.758299,47.0359849 C604.949851,46.5803424 598.693643,50.5824024 591.975973,51.6531623 C585.258304,52.7239222 578.57846,50.8937581 571.883485,51.3721827 C565.486035,51.875037 559.42955,54.4707488 554.64298,58.7611853 C550.966418,62.0569994 548.053915,66.5906423 548.00096,71.5343635 C547.849662,84.8087484 565.612147,83.1380592 574.561475,84.1632548 Z" id="Shape" fill="#333333" opacity="0.1"></path>
                <path d="M574.543663,83.1556608 C575.345073,83.118537 576.127142,83.4096771 576.710595,83.9623431 C577.294049,84.5150091 577.628852,85.2818061 577.638258,86.0869609 L580.967407,98.8905152 C582.548752,104.965749 584.14523,111.147299 584.14523,117.435165 C584.14523,136.040567 569.966084,152.086777 553.547328,160.721203 L570.344396,165.148529 C571.984909,165.700265 573.718791,165.917151 575.444047,165.786429 C576.86791,165.512455 578.221738,164.951884 579.423892,164.138522 C586.566429,159.749165 591.688779,152.595578 595.070891,144.902814 C598.453003,137.21005 600.25377,128.955326 602.039404,120.723385 C607.583871,130.59362 610.992217,141.526421 612.041983,152.808211 C613.169354,165.057401 611.572875,177.914113 616.286647,189.259612 C618.624618,194.886796 623.096269,200.24819 629.149267,201 C631.83914,184.8247 633.439248,168.485763 633.938701,152.094371 C634.052195,148.464419 634.097592,144.788903 633.242606,141.257674 C632.485982,138.144117 631.048395,135.250787 630.011819,132.220764 C625.986576,120.412029 628.347245,107.502159 630.337168,95.1846229 C632.327091,82.8670872 633.749545,69.5927023 628.158089,58.4446491 C624.934867,52.0200898 618.904569,46.5220036 611.754465,46.0359849 C604.944843,45.5803424 598.687557,49.5824024 591.96873,50.6531623 C585.249903,51.7239222 578.568907,49.8937581 571.872778,50.3721827 C565.486794,50.861278 559.43589,53.4350911 554.644434,57.700433 C550.967238,60.9962471 548.054233,65.52989 548.001269,70.4736111 C547.827245,83.8011543 565.592793,82.1304652 574.543663,83.1556608 Z" id="Shape" fill="#333333"></path>
            </g>
        </g>
    </g>
</svg>