<?xml version="1.0" encoding="UTF-8"?>
<svg width="551px" height="469px" viewBox="0 0 551 469" version="1.1" xmlns="http://www.w3.org/2000/svg" xmlns:xlink="http://www.w3.org/1999/xlink">
    <!-- Generator: Sketch 50.2 (55047) - http://www.bohemiancoding.com/sketch -->
    <title>learning</title>
    <desc>Created with Sketch.</desc>
    <defs>
        <linearGradient x1="50.0004325%" y1="100%" x2="50.0004325%" y2="-0.00293043733%" id="linearGradient-1">
            <stop stop-color="#808080" stop-opacity="0.25" offset="0%"></stop>
            <stop stop-color="#808080" stop-opacity="0.12" offset="54%"></stop>
            <stop stop-color="#808080" stop-opacity="0.1" offset="100%"></stop>
        </linearGradient>
    </defs>
    <g id="Final" stroke="none" stroke-width="1" fill="none" fill-rule="evenodd">
        <g id="Academy" transform="translate(-789.000000, -280.000000)">
            <g id="learning" transform="translate(789.000000, 280.000000)">
                <g id="Group" opacity="0.1" transform="translate(155.000000, 0.000000)" fill="#20A5DE" fill-rule="nonzero">
                    <path d="M171.335635,8.91062315 C166.232486,13.0929377 163.951657,19.7213056 161.960718,26.0056973 C157.497514,40.1069041 153.324199,54.3027498 149.440773,68.5932344 C143.779724,89.3519288 138.638287,110.569258 128.27337,129.455193 C117.908453,148.341128 102.806851,163.994777 87.869337,179.462789 L34.0592818,235.154184 C17.4316575,252.369377 -0.306298343,272.238101 0.0109392265,296.152641 C0.28441989,316.900415 14.8117127,335.305875 32.5879558,346.018279 C50.3641989,356.730682 71.1377901,361.115015 91.4683425,365.330089 C101.789503,367.470386 112.745138,369.572463 122.645138,366.012582 C134.536077,361.742908 142.286519,350.304332 153.154641,343.867062 C172.653812,332.308368 197.360055,338.811157 219.205691,344.871691 C241.051326,350.932226 266.791326,355.529496 284.507403,341.410089 C310.214586,320.918932 299.133149,279.63632 310.613867,248.864095 C321.509337,219.658872 351.635967,202.864095 371.408619,178.752997 C415.581215,124.901602 396.268011,50.1004154 335.309171,19.9069436 C315.334144,10.0408309 295.643536,10.5486053 273.978398,8.99252226 C246.963978,7.05970326 194.619779,-10.1827893 171.335635,8.91062315 Z" id="Shape"></path>
                </g>
                <g id="Group" opacity="0.5" transform="translate(0.000000, 36.000000)">
                    <path d="M159.961775,285.065027 C159.961775,285.065027 69.7501706,239.396062 108.303072,137.389292 C146.855973,35.3825227 7.27372014,0 7.27372014,0 C7.27372014,0 -20.0682594,99.3245372 31.3010239,165.468058 C82.6703072,231.611579 102.487372,341.424682 159.961775,285.065027 Z" id="Shape" fill="#20A5DE" fill-rule="nonzero"></path>
                    <path d="M7.27372014,0 C7.27372014,0 45.3351536,65.9741742 64.5406143,151.794682 C83.7460751,237.615191 115.014334,308.434864 159.497611,283.44804" id="Shape" stroke="#FFFFFF"></path>
                </g>
                <g id="Group" opacity="0.5" transform="translate(102.000000, 127.000000)">
                    <path d="M38.88288,210.92648 C38.88288,210.92648 2.41776,159.157041 50.79504,109.254643 C99.17232,59.3522449 33.22488,0.169234694 33.22488,0.169234694 C33.22488,0.169234694 -8.36832,51.5510714 1.56216,104.816327 C11.49264,158.081582 -7.40232,228.57602 38.88288,210.92648 Z" id="Shape" fill="#20A5DE" fill-rule="nonzero"></path>
                    <path d="M33.2304,0.169234694 C33.2304,0.169234694 35.9904,49.694949 23.2392,105.815357 C10.488,161.935765 8.26344,212.476888 39.06504,209.85102" id="Shape" stroke="#FFFFFF"></path>
                </g>
                <g id="Group" opacity="0.1" transform="translate(34.000000, 399.000000)" fill="#20A5DE" fill-rule="nonzero">
                    <path d="M0.387911001,20.1578125 C1.02168109,24.0570313 3.27812114,27.0265625 5.41982695,29.75 L30.9072188,62.0921875 C32.9560445,64.6953125 35.1578492,67.4023438 37.911471,68.1078125 C43.6645735,69.6335938 48.2921879,62.2398438 53.2093696,57.9140625 C70.6926823,42.5359375 94.5847219,65.9476563 114.346329,56.9953125 C122.252064,53.4132813 128.655328,44.9039063 136.714042,42.021875 C158.049147,34.365625 176.127985,68.1898438 198.156959,69.9125 C205.39068,70.459375 212.487812,67.484375 219.399184,64.5257813 L265.500494,44.7726563 C268.702126,43.4 271.958393,42.0382813 275.334858,41.95625 C281.006007,41.8578125 286.289246,45.5109375 291.62712,48.1414063 C313.115204,58.7398438 336.974462,53.0195313 359.047145,44.9914063 C381.119827,36.9632813 403.350952,26.6328125 426.166675,28.3445313 C432.105538,28.7929688 439.951174,28.415625 441.573844,20.6171875 C442.54089,15.9796875 429.488504,20.8414063 426.467169,18.3421875 C423.445834,15.8429688 430.635847,5.4140625 427.111867,4.97109375 C406.607219,2.40078125 385.71466,2.3296875 365.674413,8.79921875 C355.293696,12.1460938 345.082349,17.2429688 334.422991,18.2875 C323.310161,19.38125 312.257429,16.0125 301.346749,12.95 C273.717651,5.1953125 245.61869,-0.721875 217.410457,0.48125 C167.277058,2.66875 117.897627,27.4203125 68.0155501,20.2453125 C53.1953245,18.0512496 38.8791867,13.2524322 25.7277874,6.0703125 C18.996712,2.43359375 19.2972064,15.3125 12.4295426,19.6492188 C10.1949567,21.0601563 4.34351051,7.90234375 2.59517923,10.434375 C0.583191686,13.2466047 -0.212423291,16.7514404 0.387911001,20.1578125 Z" id="Shape"></path>
                </g>
                <path d="M464.831064,356.600864 L385.087726,252.23591 C378.860256,222.937225 369.510848,222.937225 369.510848,222.937225 C305.967683,214.39132 288.526391,203.402947 288.526391,203.402947 L274.310917,197.840459 L273.124472,197.14105 C273.069797,196.829594 273.009655,196.518139 272.95498,196.195755 C272.900305,195.873371 272.84563,195.447169 272.80189,195.070143 C288.32735,185.743514 299.530709,170.657727 303.966582,153.105597 C304.081399,152.646609 304.185281,152.176694 304.294631,151.712242 C307.345811,150.25032 309.921541,147.956505 311.72495,145.095177 C317.832136,135.090348 312.031129,122.424486 312.162349,110.769489 C312.244361,103.403836 314.786744,96.1857158 314.496967,88.8255277 C314.256397,82.6619849 312.047531,76.7443281 309.636368,71.0507008 C308.466326,68.280385 307.175998,65.4499637 304.934327,63.4009136 C298.991166,58.0078136 289.368384,60.3191422 281.735768,57.6635732 C271.861482,54.2266331 267.263323,43.516931 261.555264,34.9054563 C259.368268,31.583263 255.387936,28.0752892 251.795795,29.8948457 C247.58036,32.0258579 248.723066,39.3204764 244.463891,41.3695265 C241.883236,42.6098848 238.728494,41.0471426 236.88595,38.8833457 C235.043406,36.7195487 233.988181,34.0038743 232.172974,31.8182208 C228.857652,27.96561 223.697107,26.2373957 218.728417,27.3157746 C217.761175,27.4722226 216.867806,27.929148 216.175099,28.6217026 C214.813695,30.2063013 215.666623,32.5668071 215.75957,34.6322496 C216.082152,41.5880918 207.558336,45.4512344 200.516209,46.1888924 C193.474082,46.9265505 185.174433,47.0139766 180.958998,52.6147137 C178.728262,55.5817383 178.252591,59.4448808 176.749031,62.8217154 C173.260773,70.651819 164.824436,74.941164 157.41052,79.438146 C149.996604,83.935128 142.363988,90.4920885 142.429598,99.0379936 C142.495208,107.234194 149.734165,113.873117 151.00809,121.987355 C151.686058,126.287628 150.630833,130.729969 151.472826,135.008386 C153.020126,142.854882 160.357497,148.122307 167.126249,152.575576 C167.585518,152.876103 168.050255,153.17663 168.525927,153.460765 C168.646211,153.941609 168.766496,154.416989 168.897716,154.892368 C174.152553,173.389175 186.912847,188.844303 204.08648,197.512611 C204.19583,197.971598 204.299712,198.43605 204.403594,198.911429 C204.726176,200.375817 205.026888,201.90031 205.294795,203.463053 L205.08703,203.517694 L205.08703,203.364698 L126.327841,223.434461 C125.853732,223.263946 125.347716,223.2005 124.846151,223.248681 C121.620333,222.986402 111.532814,226.461591 99.7613087,273.589745 L49.3073137,362.704301 C49.3073137,362.704301 20.0289064,390.784484 42.4565491,414.613571 C53.8890701,426.749412 66.7814108,429.683652 76.6720997,429.645403 C82.4158789,429.726948 88.1263396,428.760358 93.522903,426.793125 C93.522903,426.793125 93.1183087,426.170214 92.4950149,425.066459 L99.1653523,425.880615 C112.287328,440.458924 134.638426,435.33903 134.638426,435.33903 C134.638426,435.33903 166.431878,434.978398 167.601921,418.361967 L224.742656,435.87998 L224.97229,439 L254.977874,439 L254.928666,437.011055 L318.056303,418.006798 C322.977043,427.099117 335.005521,431.596099 335.005521,431.596099 C335.005521,431.596099 372.053231,433.153377 383.698984,426.410636 C388.592364,423.540882 393.922441,421.490265 399.478159,420.339983 L399.800741,420.307199 L399.724196,420.383696 L471.053067,412.733909 C503.453411,384.675583 464.831064,356.600864 464.831064,356.600864 Z M105.797417,381.418959 L104.228248,380.511913 C107.032077,379.441488 109.914811,378.590169 112.850479,377.965627 L126.726968,360.846496 L129.127196,377.730669 C121.166064,375.895685 112.803103,377.217817 105.797417,381.418959 Z M374.180084,381.282356 C369.01385,377.381863 362.693463,375.314818 356.219381,375.408412 L356.76613,333.848211 C361.976647,337.175868 366.350639,340.847766 367.646434,344.388525 C371.386197,354.770379 389.450783,371.244742 389.450783,371.244742 L380.068571,378.949171 L378.608751,380.145816 C378.215092,380.238706 377.821433,380.331596 377.427773,380.435415 L374.180084,381.282356 Z" id="Shape" fill="url(#linearGradient-1)" fill-rule="nonzero"></path>
                <polygon id="Shape" fill="#EFB7B9" fill-rule="nonzero" points="90.3234482 427.164122 104.646896 429 113 386.791349 96.8854485 377 76 400.24894"></polygon>
                <polygon id="Shape" fill="#000000" fill-rule="nonzero" opacity="0.03" points="90.3234482 427.164122 104.646896 429 113 386.791349 96.8854485 377 76 400.24894"></polygon>
                <path d="M286,222.181392 L250.763998,253.749045 C250.763998,253.749045 182.717721,268.925592 199.730659,247.676238 C209.367856,235.640045 208.086547,217.372385 205.162534,203.79337 C203.854592,197.635578 202.037739,191.596782 199.730659,185.739079 C199.730659,185.739079 287.232028,132.949428 275.081494,173.019011 C271.478496,184.902017 270.974734,194.065937 272.042491,201.068813 C274.594158,217.678761 286,222.181392 286,222.181392 Z" id="Shape" fill="#EFB7B9" fill-rule="nonzero"></path>
                <path d="M274.849735,172.943202 C271.270178,184.767825 270.769693,193.886722 271.830504,200.855192 C251.688183,213.336031 226.490982,214.368459 205.396536,203.577251 C204.097103,197.449712 202.292071,191.440586 200,185.611663 C200,185.611663 286.92122,133.070486 274.849735,172.943202 Z" id="Shape" fill="#000000" fill-rule="nonzero" opacity="0.1"></path>
                <path d="M303.999712,142.000189 C303.999709,179.551889 273.560693,209.994966 236.008972,210 C198.457251,210.005034 168.010074,179.57012 168.000002,142.018422 C167.989931,104.466724 198.420778,74.0154816 235.972496,74.0003727 C254.027963,73.940553 271.361575,81.0847093 284.131356,93.8493465 C296.901136,106.613984 304.052269,123.944711 303.999712,142.000189 Z" id="Shape" fill="#EFB7B9" fill-rule="nonzero"></path>
                <polygon id="Shape" fill="#E1E7EF" fill-rule="nonzero" points="190 229.177656 190 354 310 344.258973 289.90118 217 236.906396 248.65971"></polygon>
                <path d="M255,306 L241.660241,268.313511 L242.208525,268.313511 C256.200743,253.116197 250.114786,244 250.114786,244 L230.694553,244 C218.330739,252.765574 226.91139,264.122471 229.82278,267.393125 L224,306 L255,306 Z" id="Shape" fill="#000000" fill-rule="nonzero" opacity="0.1"></path>
                <path d="M255,305 L241.660241,267.313511 L242.208525,267.313511 C256.200743,252.116197 250.114786,243 250.114786,243 L230.694553,243 C218.330739,251.765574 226.91139,263.122471 229.82278,266.393125 L224,305 L255,305 Z" id="Shape" fill="#444053" fill-rule="nonzero"></path>
                <path d="M272.200748,203 C272.200748,203 268.410085,220.595331 242,244.064813 C242,244.064813 250.122848,246.776794 251.314199,268.440096 L261.229488,282 C261.229488,282 269.038252,253.714041 282.857924,244.086509 C296.677595,234.458977 282.857924,209.183316 282.857924,209.183316 L272.200748,203 Z" id="Shape" fill="#000000" fill-rule="nonzero" opacity="0.1"></path>
                <path d="M272.200748,201 C272.200748,201 268.410085,218.595331 242,242.064813 C242,242.064813 250.122848,244.776794 251.314199,266.440096 L261.229488,280 C261.229488,280 269.038252,251.714041 282.857924,242.086509 C296.677595,232.458977 282.857924,207.183316 282.857924,207.183316 L272.200748,201 Z" id="Shape" fill="#E1E7EF" fill-rule="nonzero"></path>
                <path d="M237,244.840661 C237,244.840661 225.471356,253.928817 224.845515,268.464409 C224.219674,283 218.147922,283 218.147922,283 C218.147922,283 202.919131,236.369299 198.049652,232.128159 C193.180172,227.88702 206.833381,210 206.833381,210 C206.833381,210 214.491694,235.152086 237,244.840661 Z" id="Shape" fill="#000000" fill-rule="nonzero" opacity="0.1"></path>
                <path d="M237,242.838305 C237,242.838305 225.48133,251.918965 224.85603,266.467668 C224.230731,281.016371 218.164231,281 218.164231,281 C218.164231,281 202.943131,234.357928 198.055924,230.123197 C193.168716,225.888465 206.832053,208 206.832053,208 C206.832053,208 214.511167,233.146445 237,242.838305 Z" id="Shape" fill="#E1E7EF" fill-rule="nonzero"></path>
                <path d="M271,202 L286.203317,208.076193 C286.203317,208.076193 303.23169,219.024288 365.256183,227.514536 C365.256183,227.514536 374.375981,227.514536 380.4595,256.669313 L458.284701,360.528418 C458.284701,360.528418 495.986078,388.446061 464.36822,416.407496 L394.763991,424 C394.763991,424 434.898776,385.736407 374.090987,384.521169 L385.326316,375.100333 C385.326316,375.100333 367.689591,358.67819 364.04496,348.376033 C360.400329,338.073875 330.613007,326.512686 330.613007,326.512686 L334.263119,413.971545 L279.511446,422.467267 L271.619313,259.723832 C271.239486,252.047989 271.680432,244.353575 272.934669,236.77115 C274.995392,224.427173 277.17121,204.873875 271,202 Z" id="Shape" fill="#000000" fill-rule="nonzero" opacity="0.1"></path>
                <path d="M272,202 L287.203317,208.076193 C287.203317,208.076193 304.23169,219.024288 366.256183,227.514536 C366.256183,227.514536 375.375981,227.514536 381.4595,256.669313 L459.284701,360.528418 C459.284701,360.528418 496.986078,388.446061 465.36822,416.407496 L395.763991,424 C395.763991,424 435.898776,385.736407 375.090987,384.521169 L386.342758,375.105807 C386.342758,375.105807 368.706033,358.683664 365.061402,348.381507 C361.416771,338.079349 331.629449,326.518161 331.629449,326.518161 L335.279561,413.977019 L280.489524,422.467267 L272.597391,259.723832 C272.217564,252.047989 272.65851,244.353575 273.912746,236.77115 C275.995392,224.427173 278.17121,204.873875 272,202 Z" id="Shape" fill="#67647E" fill-rule="nonzero"></path>
                <path d="M206.072879,208 L129.257576,228.056015 C129.257576,228.056015 117.766081,220.774357 103.854176,277.840448 L54.8626831,366.467681 C54.8626831,366.467681 26.4337707,394.368847 48.2120075,418.062955 C69.9902443,441.757062 97.2198545,430.164401 97.2198545,430.164401 C97.2198545,430.164401 72.4215568,391.321602 115.972579,381.605431 L132.326699,360.96951 L206.11649,369.465688 L204.257571,262.631577 L206.323642,250.179998 C208.558786,236.72161 208.558786,222.984746 206.323642,209.526358 L206.072879,208 Z" id="Shape" fill="#000000" fill-rule="nonzero" opacity="0.1"></path>
                <path d="M206.089131,208 L129.269739,228.058955 C129.269739,228.058955 117.777633,220.77623 103.864987,277.850688 L54.8708864,366.490916 C54.8708864,366.490916 26.4186541,394.396173 48.2253085,418.055453 C70.0319629,441.714734 97.2194092,430.196976 97.2194092,430.196976 C97.2194092,430.196976 72.4197915,391.348481 115.973132,381.630886 L132.328123,360.991939 L206.121841,369.489363 L204.273727,262.639587 L206.323553,250.186182 C208.558816,236.725821 208.558816,222.986943 206.323553,209.526582 L206.089131,208 Z" id="Shape" fill="#67647E" fill-rule="nonzero"></path>
                <polygon id="Shape" fill="#E4E6ED" fill-rule="nonzero" points="130.295723 268 123 273.5608 233 302 233 290.872829"></polygon>
                <polygon id="Shape" fill="#E4E6ED" fill-rule="nonzero" points="341.727795 265 349 270.433566 232 300 232 289.138306"></polygon>
                <polygon id="Shape" fill="#20A5DE" fill-rule="nonzero" points="117 268 218.735516 291.702038 226 440 136.981423 412.041783"></polygon>
                <polygon id="Shape" fill="#20A5DE" fill-rule="nonzero" points="354 268 246 292.799956 252.030512 441 352.189215 410.148615"></polygon>
                <path d="M215,291 C215,291 232.730554,301.93094 251.371067,291 L255,442 L225.8868,442 L215,291 Z" id="Shape" fill="#20A5DE" fill-rule="nonzero"></path>
                <path d="M215,291 C215,291 232.730554,301.93094 251.371067,291 L255,442 L225.8868,442 L215,291 Z" id="Shape" fill="#000000" fill-rule="nonzero" opacity="0.1"></path>
                <path d="M133,265 L133,269.201893 L233,289 C233,289 182.090512,270.397026 133,265 Z" id="Shape" fill="#D8D9E5" fill-rule="nonzero"></path>
                <path d="M340,263 L340,267.297214 L232,290 C232,290 290.844962,268.52499 340,263 Z" id="Shape" fill="#D8D9E5" fill-rule="nonzero"></path>
                <path d="M373.775327,383.98733 L370.613204,384.840162 C370.613204,384.840162 350.018449,366.799478 323.765734,394.133848 C297.513018,421.468218 332.503895,434.845659 332.503895,434.845659 C332.503895,434.845659 368.548813,436.392784 379.870194,429.690396 C384.742588,426.765708 390.078798,424.696736 395.648038,423.572964 C399.053399,422.90455 402.152416,421.154078 404.484504,418.581708 C408.77853,413.874605 410.717514,407.47712 409.76017,401.175182 C408.508558,392.826782 402.408118,386.027804 394.249932,383.888926 C387.532373,382.141006 380.475809,382.174921 373.775327,383.98733 Z" id="Shape" fill="#EFB7B9" fill-rule="nonzero"></path>
                <path d="M106.836538,387.50339 C106.836538,387.50339 131.136719,365.643778 160.906904,402.078289 C190.677089,438.5128 137.816805,439.136735 137.816805,439.136735 C137.816805,439.136735 109.240274,445.797513 98.3276422,422.115354 C87.4150103,398.433196 106.836538,387.50339 106.836538,387.50339 Z" id="Shape" fill="#EFB7B9" fill-rule="nonzero"></path>
                <path d="M376,382.154957 C376,382.154957 404.335292,390.401724 398.260697,423 L415.386001,421.13818 L419,404.562507 L411.689616,381.475941 L397.673011,376 L376,382.154957 Z" id="Shape" fill="#000000" fill-rule="nonzero" opacity="0.1"></path>
                <path d="M377,382.154957 C377,382.154957 405.335292,390.401724 399.260697,423 L416.386001,421.13818 L420,404.562507 L412.689616,381.475941 L398.673011,376 L377,382.154957 Z" id="Shape" fill="#67647E" fill-rule="nonzero"></path>
                <path d="M303.994529,141.934856 C303.999498,147.369881 303.349191,152.785735 302.057649,158.065486 C297.791424,160.090191 293.015257,160.790649 288.346293,160.07635 C280.303319,158.846882 273.201427,154.065614 267.31966,148.453773 C261.437893,142.841931 256.502681,136.312086 250.828827,130.476207 C245.685701,125.18676 239.338864,120.241563 231.963402,120.028455 C225.266395,119.83174 219.165772,123.569325 212.709507,125.33976 C205.946842,127.197624 192.323029,122.126748 189.023768,127.853341 C187.086889,131.219353 187.770815,138.623487 186.62729,142.606966 C185.38385,146.958182 183.633816,151.148775 181.413035,155.092904 C179.771612,157.972593 177.35872,161.02714 174.048516,160.999818 C172.757354,160.93517 171.505287,160.535933 170.415499,159.841385 C163.426338,134.34236 171.889737,107.110159 192.107367,90.0446891 C212.324998,72.9792191 240.621651,69.1826804 264.632278,80.3140818 C288.642904,91.4454832 304.002796,115.481333 304,141.918463 L303.994529,141.934856 Z" id="Shape" fill="#000000" fill-rule="nonzero" opacity="0.1"></path>
                <path d="M213.20476,124.305273 C219.676663,122.534754 225.808805,118.796991 232.48895,118.993715 C239.876016,119.206833 246.238319,124.152266 251.384058,129.441965 C257.061359,135.272657 262.004337,141.802814 267.900838,147.420387 C273.797339,153.037961 280.904925,157.803063 288.960554,159.043519 C297.016183,160.283975 306.085616,157.262071 310.266871,150.300214 C316.223653,140.365633 310.568273,127.780737 310.694313,116.206787 C310.776513,108.889733 313.253482,101.720222 312.974001,94.4086333 C312.73836,88.2883195 310.584713,82.3865883 308.233784,76.7526208 C307.08846,74.0203378 305.833535,71.1896927 303.641527,69.1623387 C297.838186,63.8070641 288.450912,66.1021818 280.998085,63.4627965 C271.36421,60.0474428 266.870594,49.4079329 261.302894,40.8558873 C259.154726,37.5771477 255.274872,34.0743609 251.778619,35.8776677 C247.663125,37.9979193 248.781049,45.2439337 244.621714,47.2767522 C242.100904,48.5062795 239.021133,46.9543428 237.223687,44.8067684 C235.42624,42.659194 234.390516,39.9596984 232.62595,37.7902658 C229.424673,33.9654631 224.35212,32.2393357 219.473902,33.3147863 C218.525861,33.4712765 217.652482,33.9249183 216.980493,34.6098884 C215.654328,36.1836834 216.481811,38.5279822 216.574972,40.582659 C216.892813,47.4898703 208.590583,51.3259956 201.696718,52.0582474 C194.802853,52.7904992 186.719824,52.8779323 182.609809,58.446325 C180.417801,61.391726 179.968439,65.2278513 178.499794,68.5830947 C175.091221,76.3646366 166.860232,80.6051398 159.621125,85.0915484 C152.382019,89.577957 144.934672,96.0753259 145.000432,104.561797 C145.066193,112.720394 152.124458,119.316125 153.373903,127.36543 C154.031505,131.638721 153.006741,136.05409 153.828744,140.300058 C155.33575,148.092529 162.498136,153.322118 169.10704,157.748417 C170.751046,158.84133 172.504652,159.983424 174.477459,159.999818 C177.765471,160.027141 180.226,156.972449 181.853566,154.092622 C184.077523,150.148151 185.830295,145.957397 187.076025,141.606089 C188.221349,137.611491 187.536347,130.207005 189.476274,126.851761 C192.786206,121.092109 206.431455,126.157761 213.20476,124.305273 Z" id="Shape" fill="#585268" fill-rule="nonzero"></path>
            </g>
        </g>
    </g>
</svg>